<svg width="24" height="16" viewBox="0 0 24 16" fill="none" xmlns="http://www.w3.org/2000/svg">
<path d="M23.8594 8.28125L16.7344 15.3594C16.5938 15.5 16.3594 15.5 16.2188 15.3594C16.0781 15.2188 16.0781 14.9844 16.2188 14.8438L22.6875 8.375H0.375C0.140625 8.375 0 8.23438 0 8C0 7.76562 0.140625 7.625 0.375 7.625H22.6875L16.2188 1.10938C16.0781 0.96875 16.0781 0.734375 16.2188 0.59375C16.2656 0.5 16.3594 0.5 16.5 0.5C16.5938 0.5 16.6875 0.546875 16.7344 0.640625L23.8594 7.76562C24 7.90625 24 8.14062 23.8594 8.28125Z" fill="white"/>
</svg>
