<svg width="28" height="33" viewBox="0 0 28 33" fill="none" xmlns="http://www.w3.org/2000/svg">
<path d="M24 4.80005C26.1875 4.80005 28 6.61255 28 8.80005V28.8C28 31.05 26.1875 32.8 24 32.8H4C1.75 32.8 0 31.05 0 28.8V8.80005C0 6.61255 1.75 4.80005 4 4.80005H6V1.80005C6 1.30005 6.4375 0.800049 7 0.800049C7.5 0.800049 8 1.30005 8 1.80005V4.80005H20V1.80005C20 1.30005 20.4375 0.800049 21 0.800049C21.5 0.800049 22 1.30005 22 1.80005V4.80005H24ZM4 6.80005C2.875 6.80005 2 7.73755 2 8.80005V10.8H26V8.80005C26 7.73755 25.0625 6.80005 24 6.80005H4ZM24 30.8C25.0625 30.8 26 29.925 26 28.8V12.8H2V28.8C2 29.925 2.875 30.8 4 30.8H24Z" fill="white"/>
</svg>
