<svg width="166" height="106" viewBox="0 0 166 106" fill="none" xmlns="http://www.w3.org/2000/svg">
<path d="M146.8 13.4308H18.896C17.1577 13.4308 15.7485 14.8184 15.7485 16.5302V89.2677C15.7485 90.9794 17.1577 92.3671 18.896 92.3671H146.8C148.538 92.3671 149.947 90.9794 149.947 89.2677V16.5302C149.947 14.8184 148.538 13.4308 146.8 13.4308Z" stroke="white" stroke-width="2"/>
<path d="M133.57 10.1236H14.9773C13.158 10.1236 11.6831 11.441 11.6831 13.0661V73.8777C11.6831 75.5028 13.158 76.8202 14.9773 76.8202H133.57C135.389 76.8202 136.864 75.5028 136.864 73.8777V13.0661C136.864 11.441 135.389 10.1236 133.57 10.1236Z" stroke="white" stroke-width="0.5"/>
<path d="M150.421 29.1797H31.8284C30.0091 29.1797 28.5342 30.4971 28.5342 32.1222V92.9339C28.5342 94.559 30.0091 95.8764 31.8284 95.8764H150.421C152.24 95.8764 153.715 94.559 153.715 92.9339V32.1222C153.715 30.4971 152.24 29.1797 150.421 29.1797Z" stroke="white" stroke-width="0.5"/>
<path d="M83.1711 21.0081C82.9517 20.788 82.5949 20.7875 82.3744 21.007L78.7812 24.5839C78.5606 24.8034 78.5598 25.1597 78.7793 25.3798C78.9988 25.6 79.3554 25.6005 79.576 25.3811L82.77 22.2016L85.9494 25.3902C86.1689 25.6103 86.5256 25.6107 86.7461 25.3913C86.9666 25.1717 86.9673 24.8154 86.7479 24.5953L83.1711 21.0081ZM82.2273 84.9919C82.4467 85.2121 82.8034 85.2125 83.0239 84.9931L86.6171 81.4162C86.8376 81.1966 86.8385 80.8403 86.6189 80.6202C86.3995 80.4 86.0428 80.3995 85.8223 80.619L82.6283 83.7984L79.4489 80.6099C79.2294 80.3898 78.8727 80.3893 78.6522 80.6088C78.4318 80.8282 78.4309 81.1846 78.6504 81.4048L82.2273 84.9919ZM82.2085 21.4048L82.0631 84.5937L83.1898 84.5952L83.3352 21.4064L82.2085 21.4048Z" fill="white"/>
<path d="M140.776 53.467C141.176 53.2499 141.177 52.8969 140.778 52.6787L134.285 49.1232C133.887 48.9049 133.24 48.9042 132.84 49.1214C132.44 49.3386 132.44 49.6915 132.838 49.9097L138.61 53.0702L132.821 56.2161C132.422 56.4333 132.421 56.7863 132.819 57.0044C133.218 57.2226 133.865 57.2233 134.264 57.0062L140.776 53.467ZM24.6218 52.5331C24.222 52.7502 24.2212 53.1032 24.6196 53.3213L31.113 56.8768C31.5116 57.095 32.1584 57.0958 32.558 56.8786C32.9577 56.6615 32.9586 56.3085 32.5602 56.0904L26.7883 52.9299L32.5767 49.7839C32.9762 49.5668 32.9771 49.2138 32.5787 48.9956C32.1803 48.7775 31.5333 48.7766 31.1337 48.9939L24.6218 52.5331ZM140.056 52.5146L25.3446 52.3707L25.3418 53.4855L140.053 53.6294L140.056 52.5146Z" fill="white"/>
</svg>
