<svg width="18" height="24" viewBox="0 0 18 24" fill="none" xmlns="http://www.w3.org/2000/svg">
<path d="M2.26172 11.7012C1.72266 11.4316 1.04883 11.7012 0.869141 12.2852C0.464844 13.498 0.285156 14.8457 0.464844 16.1035C0.509766 16.7324 1.13867 17.1367 1.72266 17.002L6.57422 15.7891C7.47266 15.5645 7.60742 14.3066 6.75391 13.8574L2.26172 11.7012ZM4.23828 22.4375C3.74414 22.0781 3.6543 21.3594 4.05859 20.9102L7.42773 17.2266C8.05664 16.5078 9.22461 16.957 9.17969 17.9453L9 22.8867C9 23.5156 8.41602 24.0098 7.83203 23.875C6.5293 23.6504 5.31641 23.1562 4.23828 22.4375ZM10.7969 17.4961C10.2578 16.6875 11.0664 15.6992 11.9648 15.9688L16.7266 17.4961C17.3105 17.7207 17.5801 18.3945 17.3105 18.9336C16.7715 20.1016 15.9629 21.1348 14.9746 21.9883C14.4805 22.3477 13.7617 22.2578 13.4473 21.7188L10.7969 17.4961ZM17.4453 11.5664C17.7148 12.1504 17.4004 12.7793 16.8164 12.959L12.0098 14.3516C11.0664 14.6211 10.3477 13.5879 10.8867 12.7793L13.6719 8.64648C13.9863 8.15234 14.7051 8.0625 15.1992 8.4668C16.1426 9.32031 16.9512 10.3535 17.4453 11.5664ZM3.16016 2.26758C4.73242 1.50391 6.43945 1.05469 8.19141 0.919922C8.77539 0.875 9.31445 1.32422 9.26953 1.9082V11.2969C9.26953 12.3301 7.92188 12.6895 7.38281 11.791L2.71094 3.70508C2.39648 3.16602 2.62109 2.49219 3.16016 2.26758Z" fill="white"/>
</svg>
