<svg width="116" height="40" viewBox="0 0 116 40" fill="none" xmlns="http://www.w3.org/2000/svg">
<g clip-path="url(#clip0_76_40)">
<path d="M64.0794 0.128894V17.6155H60.0691V8.42105L55.6749 15.768H53.6697L49.3181 8.54995V17.6155H45.2652V0.128894H48.6782L54.7363 10.3115L60.6664 0.128894H64.0794ZM72.7826 17.6155H77.0062L76.9209 11.6004L83.7896 0.128894H79.438L75.0011 7.47583L70.6068 0.128894H65.9993L72.8253 11.2997V17.6155H72.7826ZM60.0265 31.5789L55.6749 24.232H53.6697L49.3181 31.4501V22.3845H45.2652V39.8711H48.6782L54.7363 29.6885L60.7091 39.8711H64.1221V22.3845H60.1118V31.5789H60.0265ZM76.7503 22.3845L84.6002 39.8711H80.1206L78.4994 36.0902H71.2041L69.6256 39.8711H65.1887L72.996 22.3845H76.7503ZM77.0062 32.5242L74.8731 27.5832L72.7826 32.5242H77.0062ZM90.4877 22.3845H86.2641V39.8711H100.087V36.0902H90.445V22.3845H90.4877ZM106.358 36.0902V22.3845H102.135V39.8711H115.957V36.0902H106.316H106.358Z" fill="white"/>
<path d="M0 40V22.4275H4.26627V33.5553L18.345 27.7121L32.5517 33.5553V22.4275H36.8179V40L18.345 32.3523L0 40Z" fill="#418DFF"/>
<path d="M36.8179 17.5295H32.5517V6.44468L18.473 12.2879L4.26627 6.40172V17.5295H0V0L18.473 7.64769L36.8179 0V17.5295Z" fill="#85B6FF"/>
</g>
<defs>
<clipPath id="clip0_76_40">
<rect width="116" height="40" fill="white"/>
</clipPath>
</defs>
</svg>
