<svg width="626" height="216" viewBox="0 0 626 216" fill="none" xmlns="http://www.w3.org/2000/svg">
<g clip-path="url(#clip0_41_368)">
<path d="M345.808 0.696014V95.1235H324.166V45.4737L300.452 85.1471H289.632L266.148 46.1697V95.1235H244.276V0.696014H262.694L295.387 55.682L327.39 0.696014H345.808ZM392.775 95.1235H415.568L415.108 62.6423L452.175 0.696014H428.692L404.747 40.3695L381.034 0.696014H356.169L393.006 61.0182V95.1235H392.775ZM323.936 170.526L300.452 130.853H289.632L266.148 169.83V120.876H244.276V215.304H262.694L295.387 160.318L327.62 215.304H346.038V120.876H324.397V170.526H323.936ZM414.187 120.876L456.55 215.304H432.375L423.626 194.887H384.257L375.738 215.304H351.794L393.927 120.876H414.187ZM415.568 175.63L404.057 148.949L392.775 175.63H415.568ZM488.321 120.876H465.529V215.304H540.124V194.887H488.091V120.876H488.321ZM573.968 194.887V120.876H551.175V215.304H625.77V194.887H573.737H573.968Z" fill="white"/>
<path d="M0 216V121.108H23.0232V181.199L98.9996 149.646L175.667 181.199V121.108H198.69V216L98.9996 174.702L0 216Z" fill="#418DFF"/>
<path d="M198.69 94.6595H175.667V34.8013L99.6903 66.3545L23.0232 34.5693V94.6595H0V0L99.6903 41.2975L198.69 0V94.6595Z" fill="#85B6FF"/>
</g>
<defs>
<clipPath id="clip0_41_368">
<rect width="626" height="216" fill="white"/>
</clipPath>
</defs>
</svg>
