<svg width="40" height="40" viewBox="0 0 40 40" fill="none" xmlns="http://www.w3.org/2000/svg">
<rect width="40" height="40" rx="20" fill="#FF3936"/>
<path d="M24.627 11.4805C27.9512 13.2324 30.0625 16.6465 30.0625 20.375C30.0625 25.9453 25.5254 30.4375 20 30.4375C14.4297 30.4375 9.9375 25.9453 9.9375 20.375C9.9375 16.6465 12.0039 13.2324 15.3281 11.4805C15.6875 11.3008 16.1367 11.4355 16.3164 11.7949C16.4961 12.1094 16.3613 12.5586 16.002 12.7383C13.127 14.2207 11.375 17.1855 11.375 20.375C11.375 25.1367 15.2383 29 20 29C24.7168 29 28.625 25.1367 28.625 20.375C28.625 17.1855 26.8281 14.2207 23.9531 12.7383C23.5938 12.5586 23.459 12.1094 23.6387 11.7949C23.8184 11.4355 24.2676 11.3008 24.627 11.4805ZM19.9551 21.8125C19.5957 21.8125 19.2812 21.498 19.2812 21.0938V9.59375C19.2812 9.23438 19.6406 8.875 20 8.875C20.3594 8.875 20.7188 9.23438 20.7188 9.59375V21.0938C20.7188 21.498 20.3594 21.8125 19.9551 21.8125Z" fill="white"/>
</svg>
