<svg width="40" height="26" viewBox="0 0 40 26" fill="none" xmlns="http://www.w3.org/2000/svg">
<path d="M28.3594 0.890625L39.6094 12.1406C39.8438 12.375 40 12.6875 40 13C40 13.2344 39.8438 13.625 39.6094 13.8594L28.3594 25.1094C27.8906 25.5781 27.0312 25.5781 26.5625 25.1094C26.0938 24.6406 26.0938 23.8594 26.5625 23.3125L35.7031 14.25H1.25C0.546875 14.25 0 13.625 0 13C0 12.375 0.546875 11.75 1.25 11.75H35.7031L26.5625 2.6875C26.0938 2.21875 26.0938 1.35938 26.5625 0.890625C27.0312 0.421875 27.8906 0.421875 28.3594 0.890625Z" fill="white"/>
</svg>
