<svg width="166" height="106" viewBox="0 0 166 106" fill="none" xmlns="http://www.w3.org/2000/svg">
<path d="M139.55 17.9766H26.2398C24.5015 17.9766 23.0923 19.3643 23.0923 21.076V85.1306C23.0923 86.8424 24.5015 88.23 26.2398 88.23H139.55C141.288 88.23 142.698 86.8424 142.698 85.1306V21.076C142.698 19.3643 141.288 17.9766 139.55 17.9766Z" stroke="#A2C7FF" stroke-width="2"/>
<path d="M136.792 10.1236H29.2082C27.5577 10.1236 26.2197 11.441 26.2197 13.0661V73.8777C26.2197 75.5028 27.5577 76.8202 29.2082 76.8202H136.792C138.442 76.8202 139.78 75.5028 139.78 73.8777V13.0661C139.78 11.441 138.442 10.1236 136.792 10.1236Z" stroke="#A2C7FF" stroke-width="0.5"/>
<path d="M136.792 29.1797H29.2082C27.5577 29.1797 26.2197 30.4971 26.2197 32.1222V92.9339C26.2197 94.559 27.5577 95.8764 29.2082 95.8764H136.792C138.442 95.8764 139.78 94.559 139.78 92.9339V32.1222C139.78 30.4971 138.442 29.1797 136.792 29.1797Z" stroke="#A2C7FF" stroke-width="0.5"/>
<path d="M83.6343 21.0081C83.2697 20.788 82.6769 20.7875 82.3106 21.007L76.34 24.5839C75.9734 24.8034 75.9722 25.1597 76.3369 25.3798C76.7017 25.6 77.2942 25.6005 77.6607 25.3811L82.9679 22.2016L88.2507 25.3902C88.6154 25.6103 89.2082 25.6107 89.5745 25.3913C89.9409 25.1717 89.9421 24.8154 89.5774 24.5953L83.6343 21.0081ZM82.066 84.9919C82.4305 85.212 83.0233 85.2125 83.3897 84.9931L89.3602 81.4162C89.7266 81.1966 89.728 80.8403 89.3632 80.6202C88.9986 80.4 88.4058 80.3995 88.0395 80.619L82.7323 83.7984L77.4495 80.6099C77.0849 80.3898 76.4921 80.3893 76.1258 80.6088C75.7594 80.8282 75.758 81.1846 76.1228 81.4048L82.066 84.9919ZM82.0349 21.4048L81.7933 84.5937L83.6653 84.5952L83.9069 21.4064L82.0349 21.4048Z" fill="#A2C7FF"/>
</svg>
