<svg width="272" height="178" viewBox="0 0 272 178" fill="none" xmlns="http://www.w3.org/2000/svg">
<path d="M229.619 30.1871H42.0332C39.1554 30.1871 36.8225 32.5173 36.8225 35.3918V142.955C36.8225 145.83 39.1554 148.16 42.0332 148.16H229.619C232.497 148.16 234.83 145.83 234.83 142.955V35.3918C234.83 32.5173 232.497 30.1871 229.619 30.1871Z" stroke="#418DFF" stroke-width="2"/>
<path d="M225.053 17H46.9474C44.215 17 42 19.2122 42 21.9412V124.059C42 126.788 44.215 129 46.9474 129H225.053C227.785 129 230 126.788 230 124.059V21.9412C230 19.2122 227.785 17 225.053 17Z" stroke="#418DFF" stroke-width="0.5"/>
<path d="M225.053 49H46.9474C44.215 49 42 51.2122 42 53.9412V156.059C42 158.788 44.215 161 46.9474 161H225.053C227.785 161 230 158.788 230 156.059V53.9412C230 51.2122 227.785 49 225.053 49Z" stroke="#418DFF" stroke-width="0.5"/>
<path d="M136.784 35.2777C136.42 34.9081 135.827 34.9074 135.46 35.2759L129.49 41.2824C129.123 41.651 129.122 42.2493 129.487 42.6189C129.852 42.9886 130.444 42.9895 130.811 42.621L136.118 37.282L141.401 42.6363C141.765 43.0059 142.358 43.0066 142.724 42.6381C143.091 42.2694 143.092 41.6711 142.727 41.3015L136.784 35.2777ZM135.216 142.722C135.58 143.092 136.173 143.093 136.54 142.724L142.51 136.718C142.877 136.349 142.878 135.751 142.513 135.381C142.149 135.011 141.556 135.01 141.189 135.379L135.882 140.718L130.599 135.364C130.235 134.994 129.642 134.993 129.276 135.362C128.909 135.73 128.908 136.329 129.273 136.699L135.216 142.722ZM135.185 35.9439L134.943 142.054L136.815 142.056L137.057 35.9465L135.185 35.9439Z" fill="#418DFF"/>
</svg>
