<svg width="273" height="178" viewBox="0 0 273 178" fill="none" xmlns="http://www.w3.org/2000/svg">
<path d="M242.509 22.5536H29.9848C27.0964 22.5536 24.7549 24.8838 24.7549 27.7583V149.902C24.7549 152.777 27.0964 155.107 29.9848 155.107H242.509C245.397 155.107 247.739 152.777 247.739 149.902V27.7583C247.739 24.8838 245.397 22.5536 242.509 22.5536Z" stroke="#418DFF" stroke-width="2"/>
<path d="M220.526 17H23.4737C20.4507 17 18 19.2122 18 21.9412V124.059C18 126.788 20.4507 129 23.4737 129H220.526C223.549 129 226 126.788 226 124.059V21.9412C226 19.2122 223.549 17 220.526 17Z" stroke="#418DFF" stroke-width="0.5"/>
<path d="M248.526 49H51.4737C48.4507 49 46 51.2122 46 53.9412V156.059C46 158.788 48.4507 161 51.4737 161H248.526C251.549 161 254 158.788 254 156.059V53.9412C254 51.2122 251.549 49 248.526 49Z" stroke="#418DFF" stroke-width="0.5"/>
<path d="M136.784 35.2777C136.42 34.9081 135.827 34.9074 135.46 35.2759L129.49 41.2824C129.123 41.651 129.122 42.2493 129.487 42.6189C129.852 42.9886 130.444 42.9895 130.811 42.621L136.118 37.282L141.401 42.6363C141.765 43.0059 142.358 43.0066 142.724 42.6381C143.091 42.2694 143.092 41.6711 142.727 41.3015L136.784 35.2777ZM135.216 142.722C135.58 143.092 136.173 143.093 136.54 142.724L142.51 136.718C142.877 136.349 142.878 135.751 142.513 135.381C142.149 135.011 141.556 135.01 141.189 135.379L135.882 140.718L130.599 135.364C130.235 134.994 129.642 134.993 129.276 135.362C128.909 135.73 128.908 136.329 129.273 136.699L135.216 142.722ZM135.185 35.9439L134.943 142.054L136.815 142.056L137.057 35.9465L135.185 35.9439Z" fill="#418DFF"/>
<path d="M232.501 89.7842C233.165 89.4196 233.166 88.8268 232.504 88.4605L221.715 82.4899C221.053 82.1233 219.978 82.1221 219.314 82.4868C218.65 82.8516 218.649 83.4441 219.31 83.8106L228.901 89.1178L219.283 94.4006C218.619 94.7653 218.618 95.3581 219.28 95.7244C219.942 96.0908 221.017 96.092 221.681 95.7274L232.501 89.7842ZM39.4991 88.2159C38.8349 88.5804 38.8335 89.1732 39.4955 89.5396L50.2849 95.5101C50.9472 95.8765 52.0219 95.8779 52.6859 95.5131C53.3501 95.1485 53.3515 94.5557 52.6896 94.1894L43.099 88.8822L52.717 83.5994C53.3809 83.2348 53.3822 82.642 52.7203 82.2757C52.0583 81.9093 50.9833 81.9079 50.3193 82.2727L39.4991 88.2159ZM231.304 88.1848L40.7002 87.9432L40.6955 89.8152L231.3 90.0568L231.304 88.1848Z" fill="#418DFF"/>
</svg>
